                                                                        S      1
,,9H(Unsaved),15Hhorse-shoe-pipe,7Hunknown,7Hunknown,32,38,7,99,15,,1., G      1
2,2HMM,1,0.08,15H20250129.094128,0.01,10000.,7Hunknown,7Hunknown,11,0,; G      2
     314       1                                                00000200D      1
     314                       2       0                               0D      2
     406       3                                                00000000D      3
     406                       1      15                               0D      4
     408       4                                       7        00000001D      5
     408       0               1       0                               0D      6
     124       5                                                00000000D      7
     124                       3       0                               0D      8
     308       8                                                00010200D      9
     308       0               1       0                               0D     10
314,62.7450980392157,62.7450980392157,62.7450980392157,13HSteel        1P      1
- Satin;                                                               1P      2
406,1,9Hpipe v1:1;                                                     3P      3
408,9,0.,0.,0.,0.999999999999992,0,1,3;                                5P      4
124,0.999999999999996,0.,0.,-0.96413134538196,0.,                      7P      5
0.999999999999996,0.,0.136167901052322,0.,0.,1.00000000000001,         7P      6
0.;                                                                    7P      7
308,0,7Hpipe v1,0;                                                     9P      8
S      1G      2D     10P      8                                        T      1
